#!OML:ASF H:\MichaelJackson\Top Level 1\Subject 1\Session 1\male.ASF
:FULLY-SPECIFIED
:DEGREES
1208
root 14.2675 14.1506 17.7517 -352.944 -11.4669 2.54584
lowerback 4.55711 -0.959435 5.93987
upperback -2.54718 -1.14518 -5.131
thorax -5.47721 -0.904188 -8.71281
lowerneck -7.97806 3.21227 2.67703
upperneck 21.9289 4.10176 -0.595639
head 8.16535 2.08064 -0.267632
rclavicle 6.90777e-015 1.74931e-014
rhumerus -147.398 210.166 -182.454
rradius 98.6414
rwrist -51.5995
rhand 4.54943 -5.24516
rfingers 7.12502
rthumb 29.9401 -392.843
lclavicle 6.90777e-015 1.74931e-014
lhumerus -41.9744 11.9712 55.5479
lradius 20.5098
lwrist -24.7498
lhand -5.41006 10.9845
lfingers 7.12502
lthumb 20.3994 39.933
rfemur -51.6027 -38.563 5.07066
rtibia 70.4584
rfoot -17.1159 -10.8422
rtoes -38.0678
lfemur -5.33847 19.9229 13.6464
ltibia 25.7713
lfoot -6.27954 9.27657
ltoes -28.6105
1209
root 14.1887 14.113 17.7442 -352.803 -11.9234 2.74626
lowerback 4.72852 -1.01443 6.01372
upperback -2.53241 -1.20183 -5.03178
thorax -5.57007 -0.936232 -8.64138
lowerneck -7.93344 3.40962 2.7752
upperneck 21.829 4.4049 -0.812437
head 8.13677 2.21109 -0.328521
rclavicle 4.2689e-014 1.11319e-014
rhumerus -147.234 210.599 -182.959
rradius 98.975
rwrist -51.2309
rhand 3.42139 -5.24821
rfingers 7.12502
rthumb 28.8631 -393.035
lclavicle 4.2689e-014 1.11319e-014
lhumerus -42.0471 12.7776 55.196
lradius 20.4034
lwrist -25.3123
lhand -5.03807 11.1462
lfingers 7.12502
lthumb 20.7568 40.056
rfemur -52.7094 -39.0506 5.67422
rtibia 71.3295
rfoot -17.5906 -10.3187
rtoes -37.069
lfemur -4.85154 19.1147 13.5592
ltibia 25.078
lfoot -5.81224 10.4592
ltoes -29.1804
1210
root 14.1057 14.0801 17.7387 -352.594 -12.4731 2.9636
lowerback 4.81091 -1.02598 6.05389
upperback -2.53609 -1.20627 -4.93922
thorax -5.62036 -0.939903 -8.56274
lowerneck -7.90427 3.60816 2.85925
upperneck 21.7553 4.71789 -1.05794
head 8.12136 2.34239 -0.395045
rclavicle -8.49804e-015 -1.82882e-014
rhumerus -147.14 210.934 -183.348
rradius 99.2909
rwrist -50.8757
rhand 2.5775 -5.22263
rfingers 7.12502
rthumb 28.0568 -393.145
lclavicle -8.49804e-015 -1.82882e-014
lhumerus -42.0984 13.3793 54.9771
lradius 20.4135
lwrist -25.2998
lhand -5.07694 11.4165
lfingers 7.12502
lthumb 20.7195 40.3304
rfemur -53.9058 -39.3033 6.32957
rtibia 72.1282
rfoot -18.0506 -9.53713
rtoes -35.9688
lfemur -4.32117 18.1808 13.3919
ltibia 24.2785
lfoot -5.28597 11.8202
ltoes -29.3729
1211
root 14.0172 14.0527 17.7352 -352.335 -13.0756 3.19963
lowerback 4.80599 -1.00975 6.05847
upperback -2.54454 -1.18031 -4.86053
thorax -5.61905 -0.925355 -8.48159
lowerneck -7.88271 3.80777 2.94081
upperneck 21.6797 5.03576 -1.3193
head 8.10833 2.47443 -0.465664
rclavicle -8.94531e-015 -3.81667e-014
rhumerus -147.111 211.191 -183.645
rradius 99.5794
rwrist -50.5308
rhand 1.96291 -5.16445
rfingers 7.12502
rthumb 27.4691 -393.181
lclavicle -8.94531e-015 -3.81667e-014
lhumerus -42.1233 13.6953 54.9247
lradius 20.5497
lwrist -24.6779
lhand -5.50893 11.7546
lfingers 7.12502
lthumb 20.3044 40.7132
rfemur -55.1303 -39.3592 6.99702
rtibia 72.852
rfoot -18.455 -8.65017
rtoes -34.8385
lfemur -3.76032 17.1177 13.1467
ltibia 23.365
lfoot -4.72006 13.3083
ltoes -29.1609
1212
root 13.9227 14.0316 17.7338 -352.048 -13.672 3.44076
lowerback 4.72851 -0.98853 6.04961
upperback -2.54414 -1.15255 -4.79808
thorax -5.56651 -0.90736 -8.41046
lowerneck -7.85764 4.00791 3.03229
upperneck 21.5767 5.35334 -1.58673
head 8.08718 2.60688 -0.540091
rclavicle -1.67973e-014 1.90833e-014
rhumerus -147.136 211.382 -183.876
rradius 99.8293
rwrist -50.1943
rhand 1.49168 -5.10938
rfingers 7.12502
rthumb 27.0184 -393.197
lclavicle -1.67973e-014 1.90833e-014
lhumerus -42.1195 13.7007 55.0318
lradius 20.7937
lwrist -23.5354
lhand -6.28092 12.0924
lfingers 7.12502
lthumb 19.5623 41.1282
rfemur -56.3033 -39.2828 7.6467
rtibia 73.4991
rfoot -18.7993 -7.78133
rtoes -33.7324
lfemur -3.17249 15.8938 12.8443
ltibia 22.3168
lfoot -4.13632 14.8846
ltoes -28.5506
1213
root 13.8224 14.0174 17.7349 -351.753 -14.2006 3.66423
lowerback 4.60351 -0.984065 6.07025
upperback -2.52967 -1.14825 -4.75317
thorax -5.47781 -0.900687 -8.3735
lowerneck -7.82362 4.20588 3.13904
upperneck 21.4468 5.66189 -1.84143
head 8.05657 2.73793 -0.613957
rclavicle -2.68359e-015 -9.54166e-015
rhumerus -147.221 211.502 -184.052
rradius 100.037
rwrist -49.8738
rhand 1.03636 -5.07786
rfingers 7.12502
rthumb 26.5826 -393.232
lclavicle -2.68359e-015 -9.54166e-015
lhumerus -42.0898 13.4238 55.2553
lradius 21.1151
lwrist -22.0428
lhand -7.30594 12.3547
lfingers 7.12502
lthumb 18.5766 41.4877
rfemur -57.3535 -39.1456 8.26658
rtibia 74.0699
rfoot -19.0894 -7.0492
rtoes -32.7302
lfemur -2.55334 14.4629 12.5156
ltibia 21.1099
lfoot -3.58568 16.5343
ltoes -27.4685
1214
root 13.7171 14.0105 17.739 -351.465 -14.6178 3.84788
lowerback 4.44499 -1.00982 6.152
upperback -2.49919 -1.18248 -4.71725
thorax -5.36256 -0.914121 -8.37853
lowerneck -7.77024 4.39712 3.26275
upperneck 21.2983 5.95511 -2.08313
head 8.0172 2.86483 -0.688278
rclavicle 3.04141e-014 2.78299e-014
rhumerus -147.359 211.543 -184.18
rradius 100.2
rwrist -49.5958
rhand 0.524753 -5.11446
rfingers 7.12502
rthumb 26.0929 -393.342
lclavicle 3.04141e-014 2.78299e-014
lhumerus -42.0433 12.9452 55.5403
lradius 21.4705
lwrist -20.4418
lhand -8.49163 12.4695
lfingers 7.12502
lthumb 17.4357 41.7076
rfemur -58.2355 -39.011 8.86271
rtibia 74.5687
rfoot -19.36 -6.52383
rtoes -31.9231
lfemur -1.89132 12.7759 12.1893
ltibia 19.728
lfoot -3.1063 18.278
ltoes -25.9063
1215
root 13.6075 14.0108 17.7465 -351.187 -14.9007 3.97081
lowerback 4.26451 -1.07422 6.32
upperback -2.45629 -1.26423 -4.67712
thorax -5.23358 -0.95327 -8.42538
lowerneck -7.71484 4.58127 3.39144
upperneck 21.1644 6.23372 -2.30694
head 7.98269 2.98702 -0.758754
rclavicle -1.799e-014 2.22639e-014
rhumerus -147.534 211.507 -184.262
rradius 100.319
rwrist -49.3866
rhand -0.0736362 -5.23044
rfingers 7.12502
rthumb 25.5198 -393.541
lclavicle -1.799e-014 2.22639e-014
lhumerus -41.9947 12.3824 55.8272
lradius 21.8246
lwrist -18.9906
lhand -9.71475 12.4236
lfingers 7.12502
lthumb 16.2583 41.762
rfemur -58.9353 -38.9168 9.45677
rtibia 75.0023
rfoot -19.6507 -6.22277
rtoes -31.3454
lfemur -1.18298 10.8167 11.8936
ltibia 18.1732
lfoot -2.68558 20.1317
ltoes -23.9421
1216
root 13.495 14.0175 17.7574 -350.916 -15.0589 4.0254
lowerback 4.07573 -1.16812 6.57772
upperback -2.4142 -1.38073 -4.62452
thorax -5.11072 -1.01282 -8.50874
lowerneck -7.65458 4.75144 3.51907
upperneck 21.0709 6.49044 -2.5141
head 7.96058 3.1002 -0.825394
rclavicle 2.36057e-014 1.23246e-014
rhumerus -147.754 211.386 -184.277
rradius 100.396
rwrist -49.2506
rhand -0.750678 -5.42206
rfingers 7.12502
rthumb 24.8712 -393.824
lclavicle 2.36057e-014 1.23246e-014
lhumerus -41.9517 11.8236 56.0735
lradius 22.1371
lwrist -17.903
lhand -10.8771 12.1925
lfingers 7.12502
lthumb 15.1389 41.6188
rfemur -59.4699 -38.8661 10.0696
rtibia 75.3799
rfoot -19.9868 -6.12465
rtoes -30.9938
lfemur -0.426266 8.59536 11.6409
ltibia 16.4669
lfoot -2.34253 22.1234
ltoes -21.4542
1217
root 13.3801 14.0297 17.771 -350.646 -15.1291 4.02423
lowerback 3.88644 -1.27707 6.89216
upperback -2.38301 -1.51452 -4.5518
thorax -5.00494 -1.0834 -8.60262
lowerneck -7.60818 4.9058 3.63092
upperneck 21.0396 6.72592 -2.70665
head 7.96074 3.20285 -0.885748
rclavicle 3.42904e-014 -2.78299e-014
rhumerus -148.007 211.19 -184.212
rradius 100.429
rwrist -49.1672
rhand -1.45828 -5.64847
rfingers 7.12502
rthumb 24.1929 -394.143
lclavicle 3.42904e-014 -2.78299e-014
lhumerus -41.9196 11.3547 56.2552
lradius 22.3886
lwrist -17.3096
lhand -11.8918 11.8071
lfingers 7.12502
lthumb 14.1613 41.3044
rfemur -59.8815 -38.8314 10.708
rtibia 75.7108
rfoot -20.3722 -6.17355
rtoes -30.7682
lfemur 0.376105 6.15284 11.418
ltibia 14.6474
lfoot -2.07762 24.2709
ltoes -18.3612
1218
root 13.2635 14.0461 17.7864 -350.374 -15.1568 4.00236
lowerback 3.70778 -1.38106 7.20431
upperback -2.3781 -1.64204 -4.46289
thorax -4.93235 -1.15261 -8.6787
lowerneck -7.5635 5.03929 3.72998
upperneck 21.0711 6.93502 -2.89222
head 7.98123 3.29208 -0.943635
rclavicle -4.27884e-014 2.82274e-014
rhumerus -148.312 210.927 -184.047
rradius 100.422
rwrist -49.0837
rhand -2.13316 -5.87326
rfingers 7.12502
rthumb 23.5457 -394.452
lclavicle -4.27884e-014 2.82274e-014
lhumerus -41.9066 10.9972 56.3715
lradius 22.5747
lwrist -17.2333
lhand -12.7177 11.3052
lfingers 7.12502
lthumb 13.3653 40.8566
rfemur -60.2196 -38.775 11.3544
rtibia 76.006
rfoot -20.7872 -6.32228
rtoes -30.5514
lfemur 1.21138 3.57284 11.1909
ltibia 12.7655
lfoot -1.89265 26.5551
ltoes -14.4809
